<svg width="15" height="18" viewBox="0 0 15 18" fill="none" xmlns="http://www.w3.org/2000/svg">
<g clip-path="url(#clip0_5066_28931)">
<path d="M1.25098 16.2283C1.25098 16.9989 1.81055 17.6286 2.50195 17.6286H12.501C13.1895 17.6286 13.752 17.0022 13.752 16.2283V7.1344H1.25098V16.2283ZM10.626 9.23324H11.877V15.5298H10.626V9.23324ZM6.87598 9.23324H8.12695V15.5298H6.87598V9.23324ZM3.12598 9.23324H4.37695V15.5298H3.12598V9.23324ZM14.376 3.63525H10.626V2.23821C10.626 1.46426 10.0635 0.837891 9.375 0.837891H5.625C4.93652 0.837891 4.37402 1.46426 4.37402 2.23821V3.63853H0.624023C0.27832 3.63525 0 3.95007 0 4.33705V5.03556C0 5.42254 0.27832 5.73408 0.624023 5.73408H14.373C14.7188 5.73408 14.9971 5.42254 14.9971 5.03556V4.33705C15 3.95007 14.7217 3.63525 14.376 3.63525ZM9.375 3.63525H5.625V2.23821H9.375V3.63525Z" fill="#464F60"/>
</g>
<defs>
<clipPath id="clip0_5066_28931">
<rect width="15" height="16.7907" fill="white" transform="translate(0 0.837891)"/>
</clipPath>
</defs>
</svg>
