<svg width="47" height="47" viewBox="0 0 47 47" fill="none" xmlns="http://www.w3.org/2000/svg">
<circle cx="23.5" cy="23.5" r="22" stroke="white" stroke-width="3"/>
<path d="M23.8186 17.4592C23.7336 17.3776 23.6205 17.332 23.5029 17.332C23.3852 17.332 23.2721 17.3776 23.1871 17.4592L12.6761 27.5386C12.6315 27.5815 12.5959 27.633 12.5717 27.69C12.5475 27.7471 12.535 27.8084 12.5351 27.8704L12.5334 37.3303C12.5334 37.8167 12.7258 38.2832 13.0685 38.6271C13.4111 38.9711 13.8758 39.1643 14.3604 39.1643H19.8471C20.0894 39.1643 20.3218 39.0677 20.4931 38.8957C20.6644 38.7237 20.7606 38.4905 20.7606 38.2473V30.4529C20.7606 30.3313 20.8088 30.2147 20.8944 30.1287C20.9801 30.0427 21.0963 29.9944 21.2174 29.9944H25.7849C25.9061 29.9944 26.0223 30.0427 26.1079 30.1287C26.1936 30.2147 26.2417 30.3313 26.2417 30.4529V38.2473C26.2417 38.4905 26.3379 38.7237 26.5092 38.8957C26.6806 39.0677 26.9129 39.1643 27.1552 39.1643H32.6397C33.1242 39.1643 33.5889 38.9711 33.9316 38.6271C34.2742 38.2832 34.4667 37.8167 34.4667 37.3303V27.8704C34.4668 27.8084 34.4543 27.7471 34.4301 27.69C34.4058 27.633 34.3703 27.5815 34.3257 27.5386L23.8186 17.4592Z" fill="white"/>
<path d="M36.5342 25.439L32.3838 21.3407V15.1217C32.3838 14.8787 32.2903 14.6456 32.1238 14.4738C31.9573 14.3019 31.7315 14.2054 31.496 14.2054H28.8327C28.5972 14.2054 28.3714 14.3019 28.2049 14.4738C28.0385 14.6456 27.9449 14.8787 27.9449 15.1217V16.9544L24.7312 13.7827C24.4304 13.4689 23.9832 13.2891 23.4999 13.2891C23.0183 13.2891 22.5722 13.4689 22.2715 13.7833L10.4696 25.4378C10.1245 25.7814 10.0812 26.3467 10.3953 26.719C10.4741 26.8129 10.5707 26.8893 10.6791 26.9436C10.7875 26.9978 10.9054 27.0287 11.0257 27.0343C11.146 27.04 11.2662 27.0204 11.3789 26.9766C11.4917 26.9328 11.5946 26.8658 11.6814 26.7797L23.1948 15.4241C23.2774 15.3425 23.3873 15.297 23.5016 15.297C23.6159 15.297 23.7258 15.3425 23.8084 15.4241L35.3229 26.7797C35.4925 26.9475 35.7197 27.0392 35.9547 27.0344C36.1896 27.0297 36.4132 26.929 36.5763 26.7545C36.917 26.3902 36.8887 25.7889 36.5342 25.439Z" fill="white"/>
</svg>
