<svg width="47" height="47" viewBox="0 0 47 47" fill="none" xmlns="http://www.w3.org/2000/svg">
<g id="home button">
<g id="Group 1000013877">
<path id="Vector" d="M24.6354 15.1701C24.5503 15.0885 24.4373 15.043 24.3196 15.043C24.202 15.043 24.0889 15.0885 24.0039 15.1701L13.4928 25.2496C13.4482 25.2924 13.4127 25.3439 13.3884 25.401C13.3642 25.458 13.3517 25.5194 13.3518 25.5814L13.3501 35.0413C13.3501 35.5277 13.5426 35.9941 13.8852 36.3381C14.2279 36.682 14.6926 36.8752 15.1771 36.8752H20.6639C20.9062 36.8752 21.1385 36.7786 21.3098 36.6066C21.4811 36.4347 21.5774 36.2014 21.5774 35.9582V28.1639C21.5774 28.0423 21.6255 27.9256 21.7112 27.8396C21.7968 27.7537 21.913 27.7054 22.0341 27.7054H26.6017C26.7228 27.7054 26.839 27.7537 26.9247 27.8396C27.0103 27.9256 27.0584 28.0423 27.0584 28.1639V35.9582C27.0584 36.2014 27.1547 36.4347 27.326 36.6066C27.4973 36.7786 27.7297 36.8752 27.9719 36.8752H33.4564C33.941 36.8752 34.4057 36.682 34.7483 36.3381C35.0909 35.9941 35.2834 35.5277 35.2834 35.0413V25.5814C35.2835 25.5194 35.271 25.458 35.2468 25.401C35.2226 25.3439 35.187 25.2924 35.1424 25.2496L24.6354 15.1701Z" fill="white"/>
<path id="Vector_2" d="M37.3509 23.1499L33.2005 19.0516V12.8327C33.2005 12.5896 33.107 12.3566 32.9405 12.1847C32.774 12.0129 32.5482 11.9163 32.3127 11.9163H29.6494C29.414 11.9163 29.1882 12.0129 29.0217 12.1847C28.8552 12.3566 28.7616 12.5896 28.7616 12.8327V14.6653L25.5479 11.4937C25.2472 11.1798 24.7999 11 24.3167 11C23.835 11 23.3889 11.1798 23.0882 11.4942L11.2863 23.1488C10.9412 23.4924 10.8979 24.0576 11.212 24.4299C11.2908 24.5239 11.3874 24.6003 11.4958 24.6545C11.6042 24.7087 11.7221 24.7396 11.8424 24.7453C11.9628 24.751 12.0829 24.7313 12.1957 24.6875C12.3084 24.6437 12.4113 24.5767 12.4981 24.4906L24.0115 13.135C24.0941 13.0535 24.204 13.008 24.3183 13.008C24.4326 13.008 24.5425 13.0535 24.6252 13.135L36.1396 24.4906C36.3092 24.6585 36.5364 24.7501 36.7714 24.7454C37.0063 24.7407 37.2299 24.64 37.393 24.4654C37.7337 24.1012 37.7054 23.4998 37.3509 23.1499Z" fill="white"/>
<circle id="Ellipse 93" cx="23.5" cy="23.5" r="22" stroke="white" stroke-width="3"/>
</g>
</g>
</svg>
