<svg width="77" height="27" viewBox="0 0 77 27" fill="none" xmlns="http://www.w3.org/2000/svg">
<g clip-path="url(#clip0_5182_22691)">
<path fill-rule="evenodd" clip-rule="evenodd" d="M29.9014 5.51928L25.4783 6.48461L24.4798 1.97541C24.45 1.84218 24.4783 1.70859 24.5478 1.60137C24.6172 1.49345 24.7274 1.41189 24.862 1.38271L28.3053 0.631123C28.4395 0.601945 28.5741 0.629717 28.6822 0.698619C28.7909 0.76752 28.8727 0.876849 28.9025 1.01043L29.9017 5.51928H29.9014ZM23.03 7.01895C21.8469 7.27733 21.0921 8.44901 21.352 9.62315L22.2174 13.5274C23.2266 12.7178 25.4269 12.0101 26.5211 12.3697C27.8115 12.794 29.962 15.9161 29.962 15.9161C32.3458 10.45 35.8437 6.98098 37.964 5.54811C38.1712 5.38218 38.3802 5.21836 38.591 5.05701C37.3764 5.67185 36.227 6.45438 35.1278 7.34412L34.9741 6.64983C34.7141 5.47569 33.5331 4.72621 32.3504 4.98459L30.5106 5.38605L29.5117 0.877201C29.4452 0.576986 29.2613 0.33126 29.0183 0.176934C28.7753 0.022608 28.4732 -0.0399661 28.1703 0.0261234L24.727 0.777715C24.4249 0.843805 24.1769 1.02661 24.0218 1.26741C23.8663 1.50857 23.8036 1.80843 23.8698 2.109L24.869 6.61784L23.03 7.0193V7.01895Z" fill="white"/>
<path fill-rule="evenodd" clip-rule="evenodd" d="M35.6209 9.56836C32.4758 14.1349 31.9349 18.7724 31.9349 18.7724L28.7293 20.4534C26.5155 16.9901 23.6116 15.0193 22.3867 14.2931L24.1266 22.1468C24.3866 23.3209 25.5672 24.0701 26.7506 23.8117L27.1095 23.7333L27.2614 24.4202C27.2894 24.5439 27.413 24.6227 27.5377 24.5956L28.5192 24.3815C28.6436 24.3545 28.7233 24.2311 28.6953 24.1073L28.5433 23.4204L34.2788 22.1686L34.4311 22.8559C34.4587 22.9792 34.5831 23.0583 34.7074 23.0309L35.6882 22.8168C35.8125 22.7894 35.8919 22.6664 35.865 22.543L35.713 21.8557L36.0711 21.7773C37.2545 21.5189 38.009 20.3473 37.749 19.1731L35.6206 9.56836H35.6209Z" fill="white"/>
<path d="M1.34566 18.7363V14.9706H0V13.2006H1.34566V10.9961H3.56695V13.2006H5.59377V14.9706H3.56695V18.672C3.56695 19.4123 3.93994 19.8306 4.68591 19.8306C5.07519 19.8306 5.3993 19.7663 5.61006 19.6858V21.472C5.26966 21.6006 4.66962 21.6811 4.05328 21.6811C2.26981 21.6811 1.34531 20.6835 1.34531 18.7363H1.34566Z" fill="white"/>
<path d="M7.11914 13.2002H9.24337V15.083C9.48671 13.9082 10.2486 13.1035 11.5784 13.1035C11.8217 13.1035 12.0647 13.1197 12.2269 13.1678V15.2599C12.0647 15.2437 11.9025 15.2437 11.6917 15.2437C10.2001 15.2437 9.34042 16.1609 9.34042 17.8507V21.5679H7.11914V13.1998V13.2002Z" fill="white"/>
<path d="M16.4083 16.4819L18.4514 16.3209V16.015C18.4514 15.1784 17.9813 14.6472 17.0083 14.6472C16.1164 14.6472 15.5652 15.146 15.4678 15.7897H13.3599C13.6192 14.1322 15.0137 13.0059 17.0083 13.0059C19.3918 13.0059 20.6567 14.2612 20.6567 16.1599V21.5669H18.5165V20.4244C18.1921 21.1486 17.2679 21.7599 16.0034 21.7599C14.2199 21.7599 13.0684 20.7299 13.0684 19.1367C13.0684 17.5435 14.2196 16.6425 16.4086 16.4815L16.4083 16.4819ZM16.6027 20.2634C17.7376 20.2634 18.451 19.5554 18.451 18.3486V17.7854L16.8457 17.9141C15.8404 17.9946 15.2082 18.2842 15.2082 19.0727C15.2082 19.7807 15.7108 20.2634 16.6027 20.2634Z" fill="white"/>
<path d="M43.3418 13.0059C46.0172 13.0059 47.4118 14.9049 47.4118 17.3347V17.8659H41.2828C41.3639 19.1212 42.1258 20.0704 43.423 20.0704C44.4608 20.0704 45.012 19.5877 45.2875 18.9602H47.2981C46.9088 20.6177 45.4009 21.7603 43.4389 21.7603C40.7309 21.7603 39.1582 19.8454 39.1582 17.3832C39.1582 14.921 40.8769 13.0062 43.3415 13.0062L43.3418 13.0059ZM45.2875 16.337C45.1416 15.2912 44.4445 14.567 43.3418 14.567C42.2392 14.567 41.5421 15.3232 41.3476 16.337H45.2879H45.2875Z" fill="white"/>
<path d="M49.082 9.82031H51.3033V21.5677H49.082V9.82031Z" fill="white"/>
<path d="M57.1231 13.0059C59.7985 13.0059 61.193 14.9049 61.193 17.3347V17.8659H55.064C55.1452 19.1212 55.9071 20.0704 57.2042 20.0704C58.2421 20.0704 58.7932 19.5877 59.0688 18.9602H61.0793C60.69 20.6177 59.1821 21.7603 57.2201 21.7603C54.5122 21.7603 52.9395 19.8454 52.9395 17.3832C52.9395 14.921 54.6581 13.0062 57.1227 13.0062L57.1231 13.0059ZM59.0688 16.337C58.9229 15.2912 58.2258 14.567 57.1231 14.567C56.0204 14.567 55.3233 15.3232 55.1289 16.337H59.0691H59.0688Z" fill="white"/>
<path d="M62.7812 13.2002H64.9055V15.083C65.1488 13.9082 65.9107 13.1035 67.2405 13.1035C67.4838 13.1035 67.7268 13.1197 67.889 13.1678V15.2599C67.7268 15.2437 67.5646 15.2437 67.3538 15.2437C65.8622 15.2437 65.0025 16.1609 65.0025 17.8507V21.5679H62.7812V13.1998V13.2002Z" fill="white"/>
<mask id="path-10-inside-1_5182_22691" fill="white">
<path d="M62.8828 22.0746H65.1115C66.3191 22.0746 66.9952 22.7182 66.9952 23.6291C66.9952 24.5399 66.2776 25.1903 65.1115 25.1903H64.0698V26.8678H62.8832V22.0742L62.8828 22.0746ZM64.9943 24.2249C65.5323 24.2249 65.8086 23.9852 65.8086 23.6154C65.8086 23.273 65.5327 23.0402 64.9943 23.0402H64.0698V24.2249H64.9943Z"/>
</mask>
<path d="M62.8828 22.0746L61.474 20.655L58.0284 24.0746H62.8828V22.0746ZM64.0698 25.1903V23.1903H62.0698V25.1903H64.0698ZM64.0698 26.8678V28.8678H66.0698V26.8678H64.0698ZM62.8832 26.8678H60.8832V28.8678H62.8832V26.8678ZM62.8832 22.0742H64.8832V17.2716L61.4743 20.6547L62.8832 22.0742ZM64.0698 23.0402V21.0402H62.0698V23.0402H64.0698ZM64.0698 24.2249H62.0698V26.2249H64.0698V24.2249ZM62.8828 24.0746H65.1115V20.0746H62.8828V24.0746ZM65.1115 24.0746C65.3737 24.0746 65.3376 24.1429 65.2033 24.0276C65.1366 23.9704 65.0769 23.8917 65.0378 23.8021C64.9999 23.7153 64.9952 23.6506 64.9952 23.6291H68.9952C68.9952 22.6474 68.6131 21.6832 67.8092 20.9929C67.0349 20.328 66.0569 20.0746 65.1115 20.0746V24.0746ZM64.9952 23.6291C64.9952 23.591 65.0036 23.5193 65.0426 23.4332C65.0819 23.3461 65.1384 23.2758 65.1952 23.2275C65.3095 23.1304 65.3331 23.1903 65.1115 23.1903V27.1903C66.056 27.1903 67.0215 26.925 67.7861 26.275C68.5769 25.6027 68.9952 24.6463 68.9952 23.6291H64.9952ZM65.1115 23.1903H64.0698V27.1903H65.1115V23.1903ZM62.0698 25.1903V26.8678H66.0698V25.1903H62.0698ZM64.0698 24.8678H62.8832V28.8678H64.0698V24.8678ZM64.8832 26.8678V22.0742H60.8832V26.8678H64.8832ZM61.4743 20.6547L61.474 20.655L64.2917 23.4941L64.292 23.4938L61.4743 20.6547ZM64.9943 26.2249C65.5263 26.2249 66.2237 26.1106 66.8321 25.6368C67.5074 25.1109 67.8086 24.3474 67.8086 23.6154H63.8086C63.8086 23.2531 63.9717 22.7945 64.3744 22.4809C64.5447 22.3483 64.7055 22.2846 64.8125 22.2549C64.9176 22.2256 64.9844 22.2249 64.9943 22.2249V26.2249ZM67.8086 23.6154C67.8086 22.8437 67.4654 22.0899 66.794 21.5925C66.1948 21.1485 65.5168 21.0402 64.9943 21.0402V25.0402C64.9887 25.0402 64.9291 25.04 64.8319 25.0141C64.734 24.9879 64.5801 24.9304 64.4127 24.8064C64.2393 24.6779 64.0758 24.4951 63.9611 24.261C63.8476 24.0294 63.8086 23.8024 63.8086 23.6154H67.8086ZM64.9943 21.0402H64.0698V25.0402H64.9943V21.0402ZM62.0698 23.0402V24.2249H66.0698V23.0402H62.0698ZM64.0698 26.2249H64.9943V22.2249H64.0698V26.2249Z" fill="white" mask="url(#path-10-inside-1_5182_22691)"/>
<mask id="path-12-inside-2_5182_22691" fill="white">
<path d="M67.498 24.4709C67.498 23.0947 68.4987 21.9785 69.9474 21.9785C71.3962 21.9785 72.3968 23.0947 72.3968 24.4709C72.3968 25.8472 71.3962 26.9633 69.9474 26.9633C68.4987 26.9633 67.498 25.8472 67.498 24.4709ZM71.2102 24.4709C71.2102 23.7657 70.7894 23.0054 69.9474 23.0054C69.1055 23.0054 68.6847 23.7654 68.6847 24.4709C68.6847 25.1765 69.1055 25.9365 69.9474 25.9365C70.7894 25.9365 71.2102 25.1765 71.2102 24.4709Z"/>
</mask>
<path d="M69.498 24.4709C69.498 24.2711 69.5676 24.1508 69.6251 24.0907C69.6731 24.0405 69.7605 23.9785 69.9474 23.9785V19.9785C67.3104 19.9785 65.498 22.0757 65.498 24.4709H69.498ZM69.9474 23.9785C70.1344 23.9785 70.2218 24.0405 70.2698 24.0907C70.3273 24.1508 70.3968 24.2711 70.3968 24.4709H74.3968C74.3968 22.0757 72.5845 19.9785 69.9474 19.9785V23.9785ZM70.3968 24.4709C70.3968 24.6708 70.3273 24.791 70.2698 24.8511C70.2218 24.9014 70.1344 24.9633 69.9474 24.9633V28.9633C72.5845 28.9633 74.3968 26.8662 74.3968 24.4709H70.3968ZM69.9474 24.9633C69.7605 24.9633 69.6731 24.9014 69.6251 24.8511C69.5676 24.791 69.498 24.6708 69.498 24.4709H65.498C65.498 26.8662 67.3104 28.9633 69.9474 28.9633V24.9633ZM73.2102 24.4709C73.2102 23.754 73.0028 22.9456 72.4897 22.2672C71.936 21.5352 71.0506 21.0054 69.9474 21.0054V25.0054C69.8472 25.0054 69.7127 24.9803 69.5753 24.9086C69.4428 24.8395 69.3531 24.7511 69.2994 24.6802C69.2073 24.5583 69.2102 24.4827 69.2102 24.4709H73.2102ZM69.9474 21.0054C68.8446 21.0054 67.9592 21.5348 67.4053 22.267C66.892 22.9455 66.6847 23.754 66.6847 24.4709H70.6847C70.6847 24.4823 70.6877 24.5581 70.5954 24.6802C70.5416 24.7512 70.4519 24.8396 70.3193 24.9087C70.1819 24.9803 70.0475 25.0054 69.9474 25.0054V21.0054ZM66.6847 24.4709C66.6847 25.1879 66.892 25.9964 67.4053 26.6749C67.9592 27.4071 68.8446 27.9365 69.9474 27.9365V23.9365C70.0475 23.9365 70.1819 23.9615 70.3193 24.0332C70.4519 24.1023 70.5416 24.1906 70.5954 24.2617C70.6877 24.3838 70.6847 24.4595 70.6847 24.4709H66.6847ZM69.9474 27.9365C71.0503 27.9365 71.9357 27.4071 72.4896 26.6749C73.0029 25.9964 73.2102 25.1879 73.2102 24.4709H69.2102C69.2102 24.4595 69.2072 24.3838 69.2995 24.2617C69.3533 24.1906 69.443 24.1023 69.5755 24.0332C69.713 23.9615 69.8474 23.9365 69.9474 23.9365V27.9365Z" fill="white" mask="url(#path-12-inside-2_5182_22691)"/>
<mask id="path-14-inside-3_5182_22691" fill="white">
<path d="M72.9355 25.334H74.0878C74.1774 25.7516 74.481 26.0392 75.0194 26.0392C75.5025 26.0392 75.8128 25.8268 75.8128 25.4844C75.8128 25.238 75.6541 25.0805 75.2953 25.012L74.2879 24.8133C73.4874 24.6558 73.039 24.2656 73.039 23.4712C73.039 22.6085 73.8186 21.9785 74.9227 21.9785C76.0268 21.9785 76.7788 22.5607 76.8269 23.5193H75.6885C75.6265 23.1632 75.3711 22.9031 74.9156 22.9031C74.4601 22.9031 74.1912 23.0676 74.1912 23.3826C74.1912 23.6086 74.3294 23.7113 74.6191 23.7661L75.7161 23.9714C76.5305 24.1222 76.9651 24.581 76.9651 25.334C76.9651 26.2996 76.144 26.9637 75.0056 26.9637C73.8671 26.9637 73.039 26.3267 72.9355 25.334Z"/>
</mask>
<path d="M72.9355 25.334V23.334H70.7163L70.9463 25.5412L72.9355 25.334ZM74.0878 25.334L76.0433 24.9143L75.7042 23.334H74.0878V25.334ZM75.2953 25.012L74.9084 26.9742L74.92 26.9764L75.2953 25.012ZM74.2879 24.8133L74.6748 22.8511L74.674 22.8509L74.2879 24.8133ZM76.8269 23.5193V25.5193H78.93L78.8244 23.4189L76.8269 23.5193ZM75.6885 23.5193L73.7181 23.8623L74.0066 25.5193H75.6885V23.5193ZM74.6191 23.7661L74.2472 25.7312L74.2512 25.732L74.6191 23.7661ZM75.7161 23.9714L75.3482 25.9373L75.3519 25.938L75.7161 23.9714ZM72.9355 27.334H74.0878V23.334H72.9355V27.334ZM72.1323 25.7536C72.2556 26.3282 72.5586 26.9409 73.1323 27.402C73.708 27.8647 74.3871 28.0392 75.0194 28.0392V24.0392C75.1132 24.0392 75.3714 24.0698 75.6383 24.2843C75.9032 24.4972 76.0096 24.7574 76.0433 24.9143L72.1323 25.7536ZM75.0194 28.0392C75.5213 28.0392 76.1619 27.9333 76.7387 27.5325C77.3842 27.0839 77.8128 26.3468 77.8128 25.4844H73.8128C73.8128 25.2592 73.8663 25.008 73.9958 24.7675C74.1238 24.5298 74.2949 24.3597 74.4559 24.2478C74.7567 24.0388 75.0006 24.0392 75.0194 24.0392V28.0392ZM77.8128 25.4844C77.8128 24.8809 77.5942 24.2233 77.0519 23.7181C76.5808 23.2792 76.0355 23.1172 75.6706 23.0475L74.92 26.9764C74.914 26.9753 74.6274 26.9263 74.3253 26.6448C73.9522 26.2972 73.8128 25.8415 73.8128 25.4844H77.8128ZM75.6822 23.0497L74.6748 22.8511L73.9011 26.7756L74.9084 26.9742L75.6822 23.0497ZM74.674 22.8509C74.4779 22.8124 74.6097 22.7955 74.7918 22.9814C74.8894 23.081 74.9609 23.1991 75.0022 23.3134C75.0407 23.4197 75.039 23.4831 75.039 23.4712H71.039C71.039 24.2695 71.2788 25.1114 71.9347 25.7808C72.5411 26.3998 73.2975 26.6568 73.9019 26.7757L74.674 22.8509ZM75.039 23.4712C75.039 23.5634 75.0166 23.6692 74.9663 23.7696C74.9173 23.8675 74.8568 23.9307 74.8133 23.9654C74.7309 24.031 74.7386 23.9785 74.9227 23.9785V19.9785C73.1613 19.9785 71.039 21.1043 71.039 23.4712H75.039ZM74.9227 23.9785C75.1379 23.9785 75.1263 24.035 75.0221 23.9518C74.9682 23.9087 74.9137 23.8452 74.8749 23.7673C74.8365 23.6905 74.8302 23.6337 74.8295 23.6197L78.8244 23.4189C78.7731 22.3984 78.3225 21.4689 77.5194 20.8271C76.7512 20.2131 75.8116 19.9785 74.9227 19.9785V23.9785ZM76.8269 21.5193H75.6885V25.5193H76.8269V21.5193ZM77.6589 23.1763C77.5621 22.6201 77.2886 22.0172 76.7469 21.5555C76.1979 21.0876 75.5358 20.9031 74.9156 20.9031V24.9031C74.751 24.9031 74.4443 24.8486 74.1523 24.5998C73.8677 24.3572 73.753 24.0624 73.7181 23.8623L77.6589 23.1763ZM74.9156 20.9031C74.4972 20.9031 73.8749 20.9703 73.2945 21.3466C72.5974 21.7986 72.1912 22.5524 72.1912 23.3826H76.1912C76.1912 23.5952 76.1436 23.86 75.9993 24.1268C75.8547 24.3938 75.6568 24.5821 75.4707 24.7028C75.2937 24.8176 75.1395 24.8644 75.0547 24.8837C74.9684 24.9034 74.9173 24.9031 74.9156 24.9031V20.9031ZM72.1912 23.3826C72.1912 23.9612 72.3983 24.6445 72.9934 25.1557C73.4689 25.5641 73.9992 25.6843 74.2472 25.7312L74.9911 21.801C74.9949 21.8017 75.0587 21.8134 75.1545 21.8506C75.2515 21.8883 75.4201 21.9671 75.5997 22.1213C75.7915 22.2861 75.9575 22.5047 76.0656 22.7659C76.1689 23.0157 76.1912 23.2367 76.1912 23.3826H72.1912ZM74.2512 25.732L75.3482 25.9373L76.084 22.0055L74.987 21.8002L74.2512 25.732ZM75.3519 25.938C75.4795 25.9616 75.3459 25.9668 75.1773 25.7844C75.0934 25.6937 75.0336 25.5897 74.9988 25.4912C74.9657 25.3976 74.9651 25.3377 74.9651 25.334H78.9651C78.9651 24.5535 78.7286 23.7335 78.1147 23.0693C77.5252 22.4316 76.7671 22.132 76.0803 22.0048L75.3519 25.938ZM74.9651 25.334C74.9651 25.2865 74.9765 25.213 75.0149 25.1328C75.0526 25.054 75.1015 24.9996 75.1396 24.9682C75.2121 24.9083 75.1974 24.9637 75.0056 24.9637V28.9637C76.8712 28.9637 78.9651 27.7471 78.9651 25.334H74.9651ZM75.0056 24.9637C74.8028 24.9637 74.7667 24.9083 74.8146 24.9457C74.8385 24.9645 74.8691 24.9968 74.8937 25.0413C74.9184 25.086 74.924 25.1197 74.9248 25.1267L70.9463 25.5412C71.1808 27.792 73.1027 28.9637 75.0056 28.9637V24.9637Z" fill="white" mask="url(#path-14-inside-3_5182_22691)"/>
</g>
<defs>
<clipPath id="clip0_5182_22691">
<rect width="77" height="27" fill="white"/>
</clipPath>
</defs>
</svg>
