<svg width="77" height="27" viewBox="0 0 77 27" fill="none" xmlns="http://www.w3.org/2000/svg">
<g clip-path="url(#clip0_5066_28740)">
<path fill-rule="evenodd" clip-rule="evenodd" d="M29.901 5.51928L25.4779 6.48461L24.4794 1.97541C24.4496 1.84218 24.478 1.70859 24.5474 1.60137C24.6168 1.49345 24.727 1.41189 24.8616 1.38271L28.3049 0.631123C28.4392 0.601945 28.5738 0.629717 28.6818 0.698619C28.7906 0.76752 28.8724 0.876849 28.9021 1.01043L29.9014 5.51928H29.901ZM23.0296 7.01895C21.8465 7.27733 21.0917 8.44901 21.3517 9.62315L22.217 13.5274C23.2262 12.7178 25.4266 12.0101 26.5207 12.3697C27.8111 12.794 29.9616 15.9161 29.9616 15.9161C32.3455 10.45 35.8433 6.98098 37.9637 5.54811C38.1709 5.38218 38.3799 5.21836 38.5906 5.05701C37.376 5.67185 36.2266 6.45438 35.1275 7.34412L34.9737 6.64983C34.7137 5.47569 33.5328 4.72621 32.3501 4.98459L30.5103 5.38605L29.5114 0.877201C29.4448 0.576986 29.2609 0.33126 29.018 0.176934C28.775 0.022608 28.4728 -0.0399661 28.17 0.0261234L24.7266 0.777715C24.4245 0.843805 24.1765 1.02661 24.0214 1.26741C23.8659 1.50857 23.8032 1.80843 23.8694 2.109L24.8687 6.61784L23.0296 7.0193V7.01895Z" fill="white"/>
<path fill-rule="evenodd" clip-rule="evenodd" d="M35.6209 9.56836C32.4758 14.1349 31.9349 18.7724 31.9349 18.7724L28.7293 20.4534C26.5155 16.9901 23.6116 15.0193 22.3867 14.2931L24.1266 22.1468C24.3866 23.3209 25.5672 24.0701 26.7506 23.8117L27.1095 23.7333L27.2614 24.4202C27.2894 24.5439 27.413 24.6227 27.5377 24.5956L28.5192 24.3815C28.6436 24.3545 28.7233 24.2311 28.6953 24.1073L28.5433 23.4204L34.2788 22.1686L34.4311 22.8559C34.4587 22.9792 34.5831 23.0583 34.7074 23.0309L35.6882 22.8168C35.8125 22.7894 35.8919 22.6664 35.865 22.543L35.713 21.8557L36.0711 21.7773C37.2545 21.5189 38.009 20.3473 37.749 19.1731L35.6206 9.56836H35.6209Z" fill="white"/>
<path d="M1.34566 18.7363V14.9706H0V13.2006H1.34566V10.9961H3.56695V13.2006H5.59377V14.9706H3.56695V18.672C3.56695 19.4123 3.93994 19.8306 4.68591 19.8306C5.07519 19.8306 5.3993 19.7663 5.61006 19.6858V21.472C5.26966 21.6006 4.66962 21.6811 4.05328 21.6811C2.26981 21.6811 1.34531 20.6835 1.34531 18.7363H1.34566Z" fill="white"/>
<path d="M7.11829 13.2002H9.24251V15.083C9.48586 13.9082 10.2478 13.1035 11.5775 13.1035C11.8208 13.1035 12.0638 13.1197 12.2261 13.1678V15.2599C12.0638 15.2437 11.9016 15.2437 11.6908 15.2437C10.1992 15.2437 9.33957 16.1609 9.33957 17.8507V21.5679H7.11829V13.1998V13.2002Z" fill="white"/>
<path d="M16.409 16.4819L18.4521 16.3209V16.015C18.4521 15.1784 17.9821 14.6472 17.009 14.6472C16.1171 14.6472 15.566 15.146 15.4685 15.7897H13.3606C13.6199 14.1322 15.0144 13.0059 17.009 13.0059C19.3925 13.0059 20.6574 14.2612 20.6574 16.1599V21.5669H18.5173V20.4244C18.1928 21.1486 17.2687 21.7599 16.0041 21.7599C14.2206 21.7599 13.0691 20.7299 13.0691 19.1367C13.0691 17.5435 14.2203 16.6425 16.4093 16.4815L16.409 16.4819ZM16.6035 20.2634C17.7384 20.2634 18.4517 19.5554 18.4517 18.3486V17.7854L16.8464 17.9141C15.8412 17.9946 15.2089 18.2842 15.2089 19.0727C15.2089 19.7807 15.7115 20.2634 16.6035 20.2634Z" fill="white"/>
<path d="M43.3415 13.0059C46.0169 13.0059 47.4114 14.9049 47.4114 17.3347V17.8659H41.2824C41.3635 19.1212 42.1255 20.0704 43.4226 20.0704C44.4604 20.0704 45.0116 19.5877 45.2872 18.9602H47.2977C46.9084 20.6177 45.4005 21.7603 43.4385 21.7603C40.7306 21.7603 39.1578 19.8454 39.1578 17.3832C39.1578 14.921 40.8765 13.0062 43.3411 13.0062L43.3415 13.0059ZM45.2872 16.337C45.1412 15.2912 44.4441 14.567 43.3415 14.567C42.2388 14.567 41.5417 15.3232 41.3472 16.337H45.2875H45.2872Z" fill="white"/>
<path d="M49.0811 9.82031H51.3023V21.5677H49.0811V9.82031Z" fill="white"/>
<path d="M57.1236 13.0059C59.799 13.0059 61.1935 14.9049 61.1935 17.3347V17.8659H55.0645C55.1456 19.1212 55.9076 20.0704 57.2047 20.0704C58.2425 20.0704 58.7937 19.5877 59.0693 18.9602H61.0798C60.6905 20.6177 59.1826 21.7603 57.2206 21.7603C54.5127 21.7603 52.9399 19.8454 52.9399 17.3832C52.9399 14.921 54.6586 13.0062 57.1232 13.0062L57.1236 13.0059ZM59.0693 16.337C58.9233 15.2912 58.2263 14.567 57.1236 14.567C56.0209 14.567 55.3238 15.3232 55.1293 16.337H59.0696H59.0693Z" fill="white"/>
<path d="M62.7821 13.2002H64.9063V15.083C65.1497 13.9082 65.9116 13.1035 67.2413 13.1035C67.4847 13.1035 67.7277 13.1197 67.8899 13.1678V15.2599C67.7277 15.2437 67.5654 15.2437 67.3547 15.2437C65.8631 15.2437 65.0034 16.1609 65.0034 17.8507V21.5679H62.7821V13.1998V13.2002Z" fill="white"/>
<mask id="path-10-inside-1_5066_28740" fill="white">
<path d="M62.8821 22.0746H65.1108C66.3183 22.0746 66.9945 22.7182 66.9945 23.6291C66.9945 24.5399 66.2769 25.1903 65.1108 25.1903H64.0691V26.8678H62.8824V22.0742L62.8821 22.0746ZM64.9936 24.2249C65.5316 24.2249 65.8079 23.9852 65.8079 23.6154C65.8079 23.273 65.532 23.0402 64.9936 23.0402H64.0691V24.2249H64.9936Z"/>
</mask>
<path d="M62.8821 22.0746L61.4732 20.655L58.0276 24.0746H62.8821V22.0746ZM64.0691 25.1903V23.1903H62.0691V25.1903H64.0691ZM64.0691 26.8678V28.8678H66.0691V26.8678H64.0691ZM62.8824 26.8678H60.8824V28.8678H62.8824V26.8678ZM62.8824 22.0742H64.8824V17.2716L61.4736 20.6547L62.8824 22.0742ZM64.0691 23.0402V21.0402H62.0691V23.0402H64.0691ZM64.0691 24.2249H62.0691V26.2249H64.0691V24.2249ZM62.8821 24.0746H65.1108V20.0746H62.8821V24.0746ZM65.1108 24.0746C65.373 24.0746 65.3369 24.1429 65.2025 24.0276C65.1359 23.9704 65.0761 23.8917 65.037 23.8021C64.9991 23.7153 64.9945 23.6506 64.9945 23.6291H68.9945C68.9945 22.6474 68.6124 21.6832 67.8084 20.9929C67.0341 20.328 66.0561 20.0746 65.1108 20.0746V24.0746ZM64.9945 23.6291C64.9945 23.591 65.0029 23.5193 65.0419 23.4332C65.0812 23.3461 65.1377 23.2758 65.1945 23.2275C65.3087 23.1304 65.3324 23.1903 65.1108 23.1903V27.1903C66.0553 27.1903 67.0208 26.925 67.7854 26.275C68.5761 25.6027 68.9945 24.6463 68.9945 23.6291H64.9945ZM65.1108 23.1903H64.0691V27.1903H65.1108V23.1903ZM62.0691 25.1903V26.8678H66.0691V25.1903H62.0691ZM64.0691 24.8678H62.8824V28.8678H64.0691V24.8678ZM64.8824 26.8678V22.0742H60.8824V26.8678H64.8824ZM61.4736 20.6547L61.4732 20.655L64.2909 23.4941L64.2913 23.4938L61.4736 20.6547ZM64.9936 26.2249C65.5256 26.2249 66.223 26.1106 66.8313 25.6368C67.5067 25.1109 67.8079 24.3474 67.8079 23.6154H63.8079C63.8079 23.2531 63.971 22.7945 64.3737 22.4809C64.5439 22.3483 64.7048 22.2846 64.8118 22.2549C64.9169 22.2256 64.9836 22.2249 64.9936 22.2249V26.2249ZM67.8079 23.6154C67.8079 22.8437 67.4647 22.0899 66.7933 21.5925C66.1941 21.1485 65.516 21.0402 64.9936 21.0402V25.0402C64.988 25.0402 64.9283 25.04 64.8312 25.0141C64.7333 24.9879 64.5793 24.9304 64.412 24.8064C64.2385 24.6779 64.075 24.4951 63.9604 24.261C63.8469 24.0294 63.8079 23.8024 63.8079 23.6154H67.8079ZM64.9936 21.0402H64.0691V25.0402H64.9936V21.0402ZM62.0691 23.0402V24.2249H66.0691V23.0402H62.0691ZM64.0691 26.2249H64.9936V22.2249H64.0691V26.2249Z" fill="white" mask="url(#path-10-inside-1_5066_28740)"/>
<mask id="path-12-inside-2_5066_28740" fill="white">
<path d="M67.4982 24.4709C67.4982 23.0947 68.4988 21.9785 69.9476 21.9785C71.3963 21.9785 72.397 23.0947 72.397 24.4709C72.397 25.8472 71.3963 26.9633 69.9476 26.9633C68.4988 26.9633 67.4982 25.8472 67.4982 24.4709ZM71.2103 24.4709C71.2103 23.7657 70.7895 23.0054 69.9476 23.0054C69.1056 23.0054 68.6848 23.7654 68.6848 24.4709C68.6848 25.1765 69.1056 25.9365 69.9476 25.9365C70.7895 25.9365 71.2103 25.1765 71.2103 24.4709Z"/>
</mask>
<path d="M69.4982 24.4709C69.4982 24.2711 69.5677 24.1508 69.6252 24.0907C69.6733 24.0405 69.7606 23.9785 69.9476 23.9785V19.9785C67.3105 19.9785 65.4982 22.0757 65.4982 24.4709H69.4982ZM69.9476 23.9785C70.1345 23.9785 70.2219 24.0405 70.2699 24.0907C70.3274 24.1508 70.397 24.2711 70.397 24.4709H74.397C74.397 22.0757 72.5846 19.9785 69.9476 19.9785V23.9785ZM70.397 24.4709C70.397 24.6708 70.3274 24.791 70.2699 24.8511C70.2219 24.9014 70.1345 24.9633 69.9476 24.9633V28.9633C72.5846 28.9633 74.397 26.8662 74.397 24.4709H70.397ZM69.9476 24.9633C69.7606 24.9633 69.6732 24.9014 69.6252 24.8511C69.5677 24.791 69.4982 24.6708 69.4982 24.4709H65.4982C65.4982 26.8662 67.3106 28.9633 69.9476 28.9633V24.9633ZM73.2103 24.4709C73.2103 23.754 73.0029 22.9456 72.4898 22.2672C71.9361 21.5352 71.0507 21.0054 69.9476 21.0054V25.0054C69.8473 25.0054 69.7129 24.9803 69.5754 24.9086C69.4429 24.8395 69.3532 24.7511 69.2996 24.6802C69.2074 24.5583 69.2103 24.4827 69.2103 24.4709H73.2103ZM69.9476 21.0054C68.8448 21.0054 67.9593 21.5348 67.4054 22.267C66.8921 22.9455 66.6848 23.754 66.6848 24.4709H70.6848C70.6848 24.4823 70.6878 24.5581 70.5955 24.6802C70.5417 24.7512 70.452 24.8396 70.3195 24.9087C70.182 24.9803 70.0476 25.0054 69.9476 25.0054V21.0054ZM66.6848 24.4709C66.6848 25.1879 66.8921 25.9964 67.4054 26.6749C67.9593 27.4071 68.8448 27.9365 69.9476 27.9365V23.9365C70.0476 23.9365 70.182 23.9615 70.3195 24.0332C70.452 24.1023 70.5417 24.1906 70.5955 24.2617C70.6878 24.3838 70.6848 24.4595 70.6848 24.4709H66.6848ZM69.9476 27.9365C71.0504 27.9365 71.9359 27.4071 72.4897 26.6749C73.003 25.9964 73.2103 25.1879 73.2103 24.4709H69.2103C69.2103 24.4595 69.2073 24.3838 69.2997 24.2617C69.3534 24.1906 69.4431 24.1023 69.5757 24.0332C69.7131 23.9615 69.8475 23.9365 69.9476 23.9365V27.9365Z" fill="white" mask="url(#path-12-inside-2_5066_28740)"/>
<mask id="path-14-inside-3_5066_28740" fill="white">
<path d="M72.9351 25.334H74.0873C74.1769 25.7516 74.4805 26.0392 75.0189 26.0392C75.5021 26.0392 75.8123 25.8268 75.8123 25.4844C75.8123 25.238 75.6537 25.0805 75.2948 25.012L74.2874 24.8133C73.4869 24.6558 73.0385 24.2656 73.0385 23.4712C73.0385 22.6085 73.8181 21.9785 74.9222 21.9785C76.0263 21.9785 76.7783 22.5607 76.8265 23.5193H75.688C75.626 23.1632 75.3706 22.9031 74.9151 22.9031C74.4596 22.9031 74.1907 23.0676 74.1907 23.3826C74.1907 23.6086 74.3289 23.7113 74.6186 23.7661L75.7156 23.9714C76.53 24.1222 76.9646 24.581 76.9646 25.334C76.9646 26.2996 76.1435 26.9637 75.0051 26.9637C73.8666 26.9637 73.0385 26.3267 72.9351 25.334Z"/>
</mask>
<path d="M72.9351 25.334V23.334H70.7159L70.9458 25.5412L72.9351 25.334ZM74.0873 25.334L76.0428 24.9143L75.7037 23.334H74.0873V25.334ZM75.2948 25.012L74.9079 26.9742L74.9195 26.9764L75.2948 25.012ZM74.2874 24.8133L74.6743 22.8511L74.6735 22.8509L74.2874 24.8133ZM76.8265 23.5193V25.5193H78.9295L78.8239 23.4189L76.8265 23.5193ZM75.688 23.5193L73.7176 23.8623L74.0061 25.5193H75.688V23.5193ZM74.6186 23.7661L74.2467 25.7312L74.2507 25.732L74.6186 23.7661ZM75.7156 23.9714L75.3477 25.9373L75.3515 25.938L75.7156 23.9714ZM72.9351 27.334H74.0873V23.334H72.9351V27.334ZM72.1318 25.7536C72.2551 26.3282 72.5581 26.9409 73.1319 27.402C73.7075 27.8647 74.3866 28.0392 75.0189 28.0392V24.0392C75.1128 24.0392 75.3709 24.0698 75.6378 24.2843C75.9027 24.4972 76.0091 24.7574 76.0428 24.9143L72.1318 25.7536ZM75.0189 28.0392C75.5208 28.0392 76.1615 27.9333 76.7382 27.5325C77.3837 27.0839 77.8123 26.3468 77.8123 25.4844H73.8123C73.8123 25.2592 73.8658 25.008 73.9953 24.7675C74.1233 24.5298 74.2944 24.3597 74.4554 24.2478C74.7562 24.0388 75.0001 24.0392 75.0189 24.0392V28.0392ZM77.8123 25.4844C77.8123 24.8809 77.5937 24.2233 77.0514 23.7181C76.5803 23.2792 76.035 23.1172 75.6701 23.0475L74.9195 26.9764C74.9135 26.9753 74.627 26.9263 74.3249 26.6448C73.9517 26.2972 73.8123 25.8415 73.8123 25.4844H77.8123ZM75.6817 23.0497L74.6743 22.8511L73.9006 26.7756L74.908 26.9742L75.6817 23.0497ZM74.6735 22.8509C74.4774 22.8124 74.6092 22.7955 74.7913 22.9814C74.8889 23.081 74.9604 23.1991 75.0017 23.3134C75.0402 23.4197 75.0385 23.4831 75.0385 23.4712H71.0385C71.0385 24.2695 71.2783 25.1114 71.9342 25.7808C72.5407 26.3998 73.297 26.6568 73.9014 26.7757L74.6735 22.8509ZM75.0385 23.4712C75.0385 23.5634 75.0161 23.6692 74.9658 23.7696C74.9168 23.8675 74.8563 23.9307 74.8128 23.9654C74.7304 24.031 74.7381 23.9785 74.9222 23.9785V19.9785C73.1608 19.9785 71.0385 21.1043 71.0385 23.4712H75.0385ZM74.9222 23.9785C75.1374 23.9785 75.1258 24.035 75.0216 23.9518C74.9677 23.9087 74.9133 23.8452 74.8744 23.7673C74.8361 23.6905 74.8297 23.6337 74.829 23.6197L78.8239 23.4189C78.7727 22.3984 78.322 21.4689 77.519 20.8271C76.7507 20.2131 75.8111 19.9785 74.9222 19.9785V23.9785ZM76.8265 21.5193H75.688V25.5193H76.8265V21.5193ZM77.6584 23.1763C77.5616 22.6201 77.2881 22.0172 76.7464 21.5555C76.1974 21.0876 75.5353 20.9031 74.9151 20.9031V24.9031C74.7505 24.9031 74.4438 24.8486 74.1518 24.5998C73.8672 24.3572 73.7525 24.0624 73.7176 23.8623L77.6584 23.1763ZM74.9151 20.9031C74.4967 20.9031 73.8744 20.9703 73.294 21.3466C72.5969 21.7986 72.1907 22.5524 72.1907 23.3826H76.1907C76.1907 23.5952 76.1431 23.86 75.9988 24.1268C75.8542 24.3938 75.6563 24.5821 75.4702 24.7028C75.2932 24.8176 75.139 24.8644 75.0542 24.8837C74.9679 24.9034 74.9169 24.9031 74.9151 24.9031V20.9031ZM72.1907 23.3826C72.1907 23.9612 72.3978 24.6445 72.9929 25.1557C73.4684 25.5641 73.9987 25.6843 74.2467 25.7312L74.9906 21.801C74.9944 21.8017 75.0582 21.8134 75.154 21.8506C75.251 21.8883 75.4196 21.9671 75.5992 22.1213C75.791 22.2861 75.9571 22.5047 76.0651 22.7659C76.1684 23.0157 76.1907 23.2367 76.1907 23.3826H72.1907ZM74.2507 25.732L75.3477 25.9373L76.0835 22.0055L74.9865 21.8002L74.2507 25.732ZM75.3515 25.938C75.4791 25.9616 75.3454 25.9668 75.1768 25.7844C75.0929 25.6937 75.0332 25.5897 74.9983 25.4912C74.9653 25.3976 74.9646 25.3377 74.9646 25.334H78.9646C78.9646 24.5535 78.7281 23.7335 78.1142 23.0693C77.5247 22.4316 76.7666 22.132 76.0798 22.0048L75.3515 25.938ZM74.9646 25.334C74.9646 25.2865 74.976 25.213 75.0144 25.1328C75.0521 25.054 75.101 24.9996 75.1391 24.9682C75.2116 24.9083 75.1969 24.9637 75.0051 24.9637V28.9637C76.8707 28.9637 78.9646 27.7471 78.9646 25.334H74.9646ZM75.0051 24.9637C74.8023 24.9637 74.7662 24.9083 74.8141 24.9457C74.838 24.9645 74.8686 24.9968 74.8932 25.0413C74.9179 25.086 74.9236 25.1197 74.9243 25.1267L70.9458 25.5412C71.1803 27.792 73.1022 28.9637 75.0051 28.9637V24.9637Z" fill="white" mask="url(#path-14-inside-3_5066_28740)"/>
</g>
<defs>
<clipPath id="clip0_5066_28740">
<rect width="77" height="27" fill="white"/>
</clipPath>
</defs>
</svg>
