<svg width="36" height="33" viewBox="0 0 36 33" fill="none" xmlns="http://www.w3.org/2000/svg">
<g filter="url(#filter0_d_5066_28918)">
<path d="M4.25 25V21.5C4.25 20.7917 4.4325 20.1405 4.7975 19.5463C5.1625 18.9521 5.64667 18.4992 6.25 18.1875C7.54167 17.5417 8.85417 17.0571 10.1875 16.7338C11.5208 16.4104 12.875 16.2492 14.25 16.25C15.625 16.25 16.9792 16.4117 18.3125 16.735C19.6458 17.0584 20.9583 17.5425 22.25 18.1875C22.8542 18.5 23.3387 18.9534 23.7038 19.5475C24.0688 20.1417 24.2508 20.7925 24.25 21.5V25H4.25ZM26.75 25V21.25C26.75 20.3334 26.4946 19.453 25.9837 18.6088C25.4729 17.7646 24.7492 17.0409 23.8125 16.4375C24.875 16.5625 25.875 16.7763 26.8125 17.0788C27.75 17.3813 28.625 17.7509 29.4375 18.1875C30.1875 18.6042 30.7604 19.0675 31.1562 19.5775C31.5521 20.0875 31.75 20.645 31.75 21.25V25H26.75ZM14.25 15C12.875 15 11.6979 14.5104 10.7188 13.5313C9.73958 12.5521 9.25 11.375 9.25 10C9.25 8.62503 9.73958 7.44795 10.7188 6.46878C11.6979 5.48962 12.875 5.00003 14.25 5.00003C15.625 5.00003 16.8021 5.48962 17.7812 6.46878C18.7604 7.44795 19.25 8.62503 19.25 10C19.25 11.375 18.7604 12.5521 17.7812 13.5313C16.8021 14.5104 15.625 15 14.25 15ZM26.75 10C26.75 11.375 26.2604 12.5521 25.2812 13.5313C24.3021 14.5104 23.125 15 21.75 15C21.5208 15 21.2292 14.9738 20.875 14.9213C20.5208 14.8688 20.2292 14.8117 20 14.75C20.5625 14.0834 20.995 13.3438 21.2975 12.5313C21.6 11.7188 21.7508 10.875 21.75 10C21.75 9.12503 21.5992 8.28128 21.2975 7.46878C20.9958 6.65628 20.5633 5.9167 20 5.25003C20.2917 5.14587 20.5833 5.07795 20.875 5.04628C21.1667 5.01462 21.4583 4.9992 21.75 5.00003C23.125 5.00003 24.3021 5.48962 25.2812 6.46878C26.2604 7.44795 26.75 8.62503 26.75 10Z" fill="#17728E"/>
</g>
<defs>
<filter id="filter0_d_5066_28918" x="-1" y="0" width="38" height="38" filterUnits="userSpaceOnUse" color-interpolation-filters="sRGB">
<feFlood flood-opacity="0" result="BackgroundImageFix"/>
<feColorMatrix in="SourceAlpha" type="matrix" values="0 0 0 0 0 0 0 0 0 0 0 0 0 0 0 0 0 0 127 0" result="hardAlpha"/>
<feOffset dy="4"/>
<feGaussianBlur stdDeviation="2"/>
<feComposite in2="hardAlpha" operator="out"/>
<feColorMatrix type="matrix" values="0 0 0 0 0 0 0 0 0 0 0 0 0 0 0 0 0 0 0.25 0"/>
<feBlend mode="normal" in2="BackgroundImageFix" result="effect1_dropShadow_5066_28918"/>
<feBlend mode="normal" in="SourceGraphic" in2="effect1_dropShadow_5066_28918" result="shape"/>
</filter>
</defs>
</svg>
